<svg xmlns="http://www.w3.org/2000/svg" enable-background="new 0 0 4000 4000" viewBox="0 0 4000 4000"><path fill="#217541" d="M1916.529 3136.948c-.131 0-.262-.002-.394-.006-54.268-1.711-108.765-7.174-161.979-16.235-6.683-1.139-11.179-7.479-10.041-14.162 1.139-6.684 7.479-11.173 14.163-10.041 52.111 8.875 105.482 14.224 158.631 15.899 6.776.214 12.096 5.88 11.883 12.656C1928.582 3131.703 1923.129 3136.948 1916.529 3136.948zM2077.491 3131.108c-6.206 0-11.533-4.688-12.194-10.997-.706-6.742 4.187-12.781 10.93-13.488 52.8-5.534 105.615-14.786 156.979-27.499 6.578-1.63 13.236 2.385 14.865 8.967 1.629 6.581-2.386 13.236-8.967 14.865-52.457 12.983-106.396 22.433-160.318 28.085C2078.35 3131.085 2077.917 3131.108 2077.491 3131.108zM1599.661 3082.905c-1.23 0-2.481-.187-3.717-.579-51.572-16.372-102.502-36.524-151.376-59.898-6.116-2.925-8.703-10.254-5.778-16.37 2.925-6.116 10.254-8.704 16.371-5.778 47.853 22.885 97.719 42.617 148.212 58.646 6.462 2.052 10.037 8.953 7.986 15.414C1609.699 3079.566 1604.867 3082.905 1599.661 3082.905zM2389.447 3053.869c-4.867 0-9.474-2.914-11.397-7.708-2.523-6.293.531-13.439 6.823-15.964 49.151-19.715 97.42-43.072 143.463-69.423 5.884-3.368 13.384-1.327 16.752 4.557 3.367 5.885 1.327 13.385-4.557 16.752-47.023 26.911-96.319 50.766-146.518 70.901C2392.514 3053.585 2390.968 3053.869 2389.447 3053.869zM3069.867 2320.851c-1.227 0-2.475-.186-3.706-.575-6.464-2.045-10.046-8.943-8-15.407 13.22-41.777 24.159-84.791 32.514-127.846 1.292-6.656 7.729-11.004 14.39-9.712 6.655 1.292 11.003 7.734 9.712 14.389-8.533 43.975-19.706 87.907-33.209 130.576C3079.912 2317.508 3075.078 2320.851 3069.867 2320.851zM3120.625 2059.515c-.32 0-.643-.013-.967-.038-6.759-.526-11.812-6.432-11.285-13.191 2.344-30.106 3.532-60.764 3.532-91.121 0-13.547-.237-27.273-.706-40.798-.234-6.776 5.068-12.458 11.844-12.693 6.741-.26 12.459 5.067 12.693 11.843.478 13.806.72 27.819.72 41.647 0 30.991-1.213 62.29-3.606 93.027C3132.349 2054.626 3126.972 2059.515 3120.625 2059.515zM3111.322 1793.479c-5.979 0-11.218-4.375-12.126-10.468-6.468-43.393-15.51-86.836-26.873-129.123-1.76-6.547 2.121-13.281 8.669-15.041 6.543-1.759 13.28 2.121 15.04 8.669 11.607 43.189 20.842 87.558 27.447 131.875.999 6.706-3.626 12.952-10.332 13.951C3112.534 1793.435 3111.923 1793.479 3111.322 1793.479zM3042.29 1536.543c-4.887 0-9.506-2.938-11.416-7.756-16.128-40.697-34.804-80.928-55.506-119.573-3.202-5.976-.952-13.416 5.023-16.618 5.976-3.201 13.416-.952 16.617 5.024 21.144 39.469 40.217 80.557 56.689 122.122 2.498 6.302-.587 13.437-6.89 15.935C3045.325 1536.264 3043.793 1536.543 3042.29 1536.543zM2916.677 1302.001c-3.892 0-7.719-1.846-10.103-5.287-24.942-36.013-52.238-71-81.129-103.99-4.466-5.101-3.952-12.856 1.148-17.322 5.099-4.467 12.854-3.954 17.322 1.148 29.499 33.686 57.371 69.412 82.842 106.185 3.859 5.573 2.471 13.221-3.103 17.081C2921.524 1301.292 2919.088 1302.001 2916.677 1302.001zM2741.32 1101.759c-2.948 0-5.905-1.055-8.258-3.196-32.443-29.521-66.913-57.485-102.452-83.116-5.499-3.965-6.741-11.638-2.775-17.137 3.966-5.5 11.64-6.74 17.137-2.776 36.289 26.172 71.486 54.727 104.614 84.87 5.015 4.563 5.38 12.327.817 17.341C2747.981 1100.407 2744.656 1101.759 2741.32 1101.759zM2525.375 946.054c-2.032 0-4.092-.505-5.99-1.57-38.276-21.456-78.177-40.912-118.595-57.83-6.254-2.618-9.202-9.81-6.584-16.063 2.616-6.253 9.81-9.2 16.062-6.584 41.279 17.278 82.03 37.149 121.12 59.061 5.914 3.315 8.021 10.797 4.706 16.71C2533.843 943.793 2529.671 946.054 2525.375 946.054zM816.068 2240.771c-5.549 0-10.58-3.788-11.928-9.421-11.81-49.352-20.507-100.047-25.85-150.679-.711-6.742 4.177-12.785 10.919-13.496 6.749-.703 12.785 4.178 13.496 10.92 5.231 49.58 13.748 99.219 25.312 147.542 1.578 6.593-2.488 13.217-9.082 14.795C817.975 2240.66 817.014 2240.771 816.068 2240.771zM784.292 1940.495c-.094 0-.188-.001-.283-.003-6.778-.153-12.148-5.772-11.995-12.55 1.152-50.965 5.604-102.204 13.234-152.292 1.021-6.703 7.283-11.309 13.984-10.287 6.702 1.021 11.308 7.282 10.287 13.984-7.472 49.052-11.833 99.233-12.961 149.15C796.407 1935.18 790.941 1940.495 784.292 1940.495zM829.841 1642.004c-1.128 0-2.275-.157-3.414-.486-6.513-1.882-10.268-8.688-8.385-15.201 14.107-48.819 31.576-97.203 51.923-143.807 2.712-6.214 9.948-9.051 16.162-6.338s9.051 9.948 6.338 16.162c-19.921 45.63-37.026 93.002-50.837 140.799C840.075 1638.507 835.168 1642.004 829.841 1642.004zM950.611 1365.267c-2.153 0-4.334-.567-6.314-1.758-5.81-3.494-7.688-11.036-4.194-16.846 26.174-43.521 55.471-85.796 87.079-125.648 4.212-5.312 11.934-6.202 17.246-1.99 5.312 4.213 6.203 11.934 1.99 17.246-30.953 39.027-59.644 80.426-85.274 123.045C958.839 1363.146 954.776 1365.267 950.611 1365.267zM1138.233 1128.676c-3.198 0-6.393-1.242-8.8-3.715-4.728-4.859-4.621-12.631.239-17.359 36.44-35.451 75.531-68.869 116.188-99.326 5.426-4.064 13.119-2.961 17.185 2.465 4.064 5.426 2.961 13.12-2.465 17.185-39.816 29.828-78.1 62.555-113.787 97.274C1144.407 1127.521 1141.318 1128.676 1138.233 1128.676z"/><circle cx="1954.081" cy="1955.165" r="859.105" fill="#8df290"/><path fill="#fff" d="M2456.887,1677.658h-253.205v-447.156h218.336c36.133,0,54.201,42.194,67.757,73.818
				c13.543,31.609,25.55,75.24,36.133,78.313c10.571,2.972,158.077,24.026,173.155,63.233
				c13.796,35.979,23.846,128.101,25.364,210.561c0.215,11.673-9.201,21.231-20.876,21.231h-62.205H2456.887z"/><path fill="#217541" d="M2703.551,1689.934h-62.205c-6.779,0-12.275-5.496-12.275-12.275s5.496-12.275,12.275-12.275
				h62.205c2.336,0,4.521-0.916,6.153-2.578c1.622-1.652,2.492-3.837,2.449-6.151c-1.57-85.252-12.125-173.982-24.553-206.392
				c-1.437-3.737-10.248-17.195-63.116-33.019c-33.228-9.945-69.226-16.575-88.564-20.137c-8.019-1.477-11.352-2.098-13.335-2.656
				c-0.034-0.009-0.067-0.019-0.101-0.029c-12.723-3.694-19.436-20.454-32.228-54.978c-3.809-10.279-7.746-20.907-11.766-30.289
				c-12.689-29.601-28.455-66.377-56.474-66.377h-206.061v422.605h240.93c6.779,0,12.275,5.496,12.275,12.275
				s-5.496,12.275-12.275,12.275h-253.205c-6.779,0-12.275-5.496-12.275-12.275v-447.156c0-6.78,5.496-12.275,12.275-12.275h218.336
				c19.898,0,37.459,10.092,52.192,29.998c11.577,15.64,19.678,34.535,26.824,51.206c4.285,10.001,8.331,20.922,12.244,31.484
				c5.202,14.04,12.936,34.913,17.393,40.22c2.122,0.433,5.957,1.139,9.695,1.827c19.799,3.646,56.65,10.433,91.158,20.762
				c46.75,13.993,71.852,29.162,78.995,47.737c15.329,39.978,24.772,138.286,26.181,214.741c0.165,8.957-3.201,17.41-9.478,23.803
				C2720.937,1686.407,2712.53,1689.934,2703.551,1689.934z"/><path fill="#fff" d="M2188.227,1382.633h337.681H2188.227z"/><path fill="#217541" d="M2525.908,1394.908h-337.681c-6.779,0-12.275-5.496-12.275-12.275s5.496-12.275,12.275-12.275
				h337.681c6.779,0,12.275,5.496,12.275,12.275S2532.687,1394.908,2525.908,1394.908z"/><path fill="#d9ffd0" d="M2641.635,1670.913c0-51.097-41.403-92.486-92.486-92.486c-51.098,0-92.502,41.389-92.502,92.486
				c0,51.084,41.405,92.487,92.502,92.487C2600.232,1763.401,2641.635,1721.997,2641.635,1670.913z"/><path fill="#217541" d="M2549.149,1775.676c-57.774,0-104.777-46.996-104.777-104.763
				c0-57.766,47.003-104.762,104.777-104.762c57.766,0,104.762,46.996,104.762,104.762
				C2653.911,1728.68,2606.915,1775.676,2549.149,1775.676z M2549.149,1590.702c-44.237,0-80.227,35.982-80.227,80.211
				c0,44.229,35.989,80.212,80.227,80.212c44.229,0,80.211-35.983,80.211-80.212
				C2629.36,1626.685,2593.377,1590.702,2549.149,1590.702z"/><path fill="#d9ffd0" d="M1530.145,1677.658h738.094v-99.237h-765.266v72.065
				C1502.974,1665.48,1515.139,1677.658,1530.145,1677.658z"/><path fill="#217541" d="M2268.24,1689.934h-738.095c-21.751,0-39.446-17.696-39.446-39.447v-72.065
				c0-6.78,5.496-12.275,12.275-12.275h765.266c6.779,0,12.275,5.496,12.275,12.275v99.237
				C2280.515,1684.438,2275.019,1689.934,2268.24,1689.934z M1515.25,1590.697v59.79c0,8.213,6.682,14.896,14.896,14.896h725.819
				v-74.686H1515.25z"/><path fill="#fff" d="M2268.24,1230.507v-306.84c0-22.539-18.272-40.811-40.811-40.811h-778.457
				c-22.539,0-40.811,18.272-40.811,40.811v627.363c0,15.13,12.265,27.396,27.396,27.396h832.683V1230.507z"/><path fill="#217541" d="M2268.24,1590.701h-832.683c-21.875,0-39.671-17.796-39.671-39.671V923.667
				c0-29.272,23.814-53.086,53.086-53.086h778.457c29.271,0,53.086,23.814,53.086,53.086v654.759
				C2280.515,1585.206,2275.019,1590.701,2268.24,1590.701z M1448.972,895.132c-15.734,0-28.536,12.801-28.536,28.536v627.363
				c0,8.337,6.783,15.12,15.12,15.12h820.408V923.667c0-15.734-12.801-28.536-28.535-28.536H1448.972z"/><path fill="#d9ffd0" d="M1927.783,1670.913c0-51.097-41.403-92.486-92.486-92.486c-51.098,0-92.502,41.389-92.502,92.486
				c0,51.084,41.405,92.487,92.502,92.487C1886.38,1763.401,1927.783,1721.997,1927.783,1670.913z"/><path fill="#217541" d="M1835.296,1775.676c-57.774,0-104.777-46.996-104.777-104.763
				c0-57.766,47.003-104.762,104.777-104.762c57.766,0,104.762,46.996,104.762,104.762
				C1940.058,1728.68,1893.062,1775.676,1835.296,1775.676z M1835.296,1590.702c-44.237,0-80.227,35.982-80.227,80.211
				c0,44.229,35.99,80.212,80.227,80.212c44.229,0,80.211-35.983,80.211-80.212
				C1915.507,1626.685,1879.525,1590.702,1835.296,1590.702z"/><g><path fill="#d9ffd0" d="M1739.707,1205.727l-46.187-131.665c-14.483-41.287,7.246-86.498,48.533-100.981h0
					c41.287-14.483,86.498,7.246,100.981,48.533l46.187,131.665l50.474,255.665l-90.301,19.981L1739.707,1205.727z"/><path fill="#217541" d="M1849.382,1441.204c-5.632,0-10.707-3.899-11.974-9.626c-1.465-6.62,2.714-13.173,9.333-14.638
					l78.586-17.389l-47.98-243.035l-45.897-130.839c-5.919-16.874-18.056-30.434-34.173-38.18
					c-16.117-7.746-34.287-8.752-51.161-2.833c-16.875,5.919-30.434,18.056-38.18,34.173c-7.747,16.117-8.752,34.287-2.833,51.161
					l46.187,131.666c2.244,6.397-1.123,13.403-7.52,15.647c-6.401,2.244-13.403-1.124-15.647-7.52l-46.187-131.666
					c-8.09-23.062-6.715-47.895,3.872-69.923c10.587-22.028,29.118-38.615,52.181-46.705c23.062-8.09,47.894-6.715,69.923,3.872
					c22.028,10.587,38.615,29.118,46.705,52.181l46.187,131.665c0.193,0.55,0.347,1.114,0.459,1.686l50.474,255.666
					c1.292,6.544-2.878,12.922-9.391,14.363l-90.301,19.981C1851.153,1441.109,1850.261,1441.204,1849.382,1441.204z"/><path fill="#d9ffd0" d="M1951.171,1469.131l0.013,0.019l-3.563,1.321c-0.132,0.129-0.396,0.129-0.66,0.129l-63.2,22.168
					c-23.353,5.805-48.949-4.751-60.956-27.445l-95.392-181.153l-45.123-85.893c-10.819-20.583,16.756-39.45,31.929-21.901
					l63.595,73.359L1880.2,1367.69l0.395,0.657l6.334-156.875l3.826-96.974c0.924-23.225,34.304-25.731,38.658-2.906l18.34,95.263
					l38.79,200.944C1991.702,1434.851,1975.871,1460.502,1951.171,1469.131z"/><path fill="#217541" d="M1870.719,1506.647c-24.179,0.002-46.976-13.303-58.764-35.582l-95.404-181.174l-45.128-85.904
					c-7.784-14.809-3.587-31.722,10.208-41.128c13.754-9.376,30.972-7.119,41.875,5.49l63.584,73.347l82.496,95.04l5.077-125.759
					l3.826-96.962c0.665-16.707,12.757-29.239,29.409-30.48c16.641-1.241,30.444,9.353,33.574,25.758l18.336,95.243l38.789,200.938
					c3.029,15.888,0.2,32.26-7.963,46.128c-7.862,13.356-20.14,23.572-34.634,28.841c-0.181,0.077-0.363,0.149-0.548,0.218
					l-2.936,1.088c-0.789,0.349-1.671,0.643-2.652,0.842l-62.038,21.76c-0.362,0.127-0.729,0.237-1.102,0.33
					C1881.392,1506.006,1876.02,1506.647,1870.719,1506.647z M1699.716,1181.717c-1.849,0-3.409,0.85-4.254,1.426
					c-1.607,1.096-5.048,4.207-2.306,9.423l45.125,85.896l95.387,181.142c8.986,16.985,28.095,25.729,46.609,21.377l62.622-21.965
					c0.446-0.157,0.899-0.287,1.359-0.391l1.961-0.727c0.295-0.13,0.596-0.25,0.903-0.357c19.461-6.799,31.225-27.195,27.363-47.443
					l-38.785-200.917l-18.341-95.27c-1.098-5.757-5.71-6.045-7.637-5.896c-1.938,0.144-6.469,1.112-6.701,6.969l-3.826,96.97
					l-6.334,156.886c-0.219,5.418-3.967,10.051-9.22,11.396c-5.149,1.317-10.547-0.828-13.394-5.288l-101.703-117.167l-63.6-73.365
					C1703.171,1182.367,1701.333,1181.717,1699.716,1181.717z M1939.061,1461.673c-0.002,0.001-0.003,0.003-0.005,0.004
					C1939.057,1461.676,1939.059,1461.674,1939.061,1461.673z M1939.078,1461.655c-0.001,0.002-0.003,0.003-0.005,0.005
					C1939.075,1461.659,1939.077,1461.657,1939.078,1461.655z M1939.096,1461.638c-0.002,0.002-0.004,0.004-0.006,0.005
					C1939.092,1461.642,1939.094,1461.64,1939.096,1461.638z M1939.119,1461.616c-0.002,0.002-0.005,0.005-0.007,0.007
					C1939.114,1461.621,1939.117,1461.618,1939.119,1461.616z M1939.137,1461.599c-0.003,0.003-0.006,0.006-0.009,0.009
					C1939.131,1461.605,1939.134,1461.602,1939.137,1461.599z M1939.535,1461.235c-0.131,0.114-0.262,0.233-0.391,0.357
					C1939.271,1461.471,1939.402,1461.352,1939.535,1461.235z M1939.549,1461.223c-0.001,0.001-0.002,0.002-0.004,0.003
					C1939.546,1461.225,1939.547,1461.224,1939.549,1461.223z"/></g><g><circle cx="1324.612" cy="2391.548" r="434.792" fill="#d9ffd0"/><path fill="#217541" d="M1324.612,2838.615c-60.349,0-118.898-11.822-174.023-35.138
				c-53.238-22.518-101.048-54.751-142.102-95.806c-41.054-41.053-73.287-88.863-95.805-142.102
				c-23.316-55.125-35.138-113.674-35.138-174.022c0-60.349,11.822-118.898,35.138-174.023
				c22.518-53.238,54.751-101.048,95.805-142.102c41.054-41.054,88.864-73.288,142.102-95.805
				c55.125-23.316,113.674-35.138,174.023-35.138c60.348,0,118.898,11.822,174.022,35.138
				c53.238,22.518,101.048,54.751,142.102,95.805c41.054,41.054,73.288,88.864,95.805,142.102
				c23.316,55.125,35.138,113.674,35.138,174.023c0,60.348-11.822,118.898-35.138,174.022
				c-22.518,53.238-54.751,101.048-95.805,142.102c-41.054,41.055-88.864,73.288-142.102,95.806
				C1443.51,2826.793,1384.96,2838.615,1324.612,2838.615z M1324.612,1969.031c-232.977,0-422.517,189.54-422.517,422.517
				s189.541,422.517,422.517,422.517s422.517-189.54,422.517-422.517S1557.589,1969.031,1324.612,1969.031z"/><path fill="#217541" d="M1564.935 2399.674c-6.78 0-12.275-5.496-12.275-12.275 0-39.758-3.048-79.099-9.058-116.929-1.064-6.696 3.502-12.986 10.197-14.05 6.695-1.061 12.986 3.501 14.05 10.197 6.212 39.1 9.362 79.737 9.362 120.781C1577.21 2394.178 1571.714 2399.674 1564.935 2399.674zM1514.309 2134.539c-4.741 0-9.257-2.763-11.266-7.389-43.385-99.892-107.468-157.183-175.818-157.183-6.78 0-12.275-5.496-12.275-12.275s5.496-12.275 12.275-12.275c39.686 0 79.072 16.548 113.902 47.855 32.771 29.456 61.967 72.369 84.435 124.099 2.701 6.218-.151 13.449-6.369 16.149C1517.6 2134.212 1515.94 2134.539 1514.309 2134.539zM1327.225 2829.381c-34.848 0-68.487-12.21-99.984-36.292-29.661-22.679-56.188-54.944-78.844-95.899-45.887-82.949-71.157-192.968-71.157-309.791 0-41.046 3.149-81.683 9.361-120.781 1.063-6.695 7.353-11.26 14.05-10.197 6.695 1.064 11.261 7.354 10.197 14.05-6.01 37.828-9.058 77.168-9.058 116.929 0 112.735 24.181 218.534 68.089 297.906 42.638 77.077 98.518 119.525 157.345 119.525 6.78 0 12.275 5.496 12.275 12.275S1334.004 2829.381 1327.225 2829.381z"/><path fill="#217541" d="M1391.223 2591.671H943.231c-6.78 0-12.275-5.496-12.275-12.275s5.496-12.275 12.275-12.275h447.992c6.78 0 12.275 5.496 12.275 12.275S1398.003 2591.671 1391.223 2591.671zM1327.225 2134.536c-6.78 0-12.275-5.496-12.275-12.275v-164.568c0-6.78 5.496-12.275 12.275-12.275s12.275 5.496 12.275 12.275v164.568C1339.5 2129.04 1334.004 2134.536 1327.225 2134.536z"/><path fill="#217541" d="M1327.225,2829.381c-6.78,0-12.275-5.496-12.275-12.275v-548.562
					c0-6.78,5.496-12.275,12.275-12.275s12.275,5.496,12.275,12.275v548.562C1339.5,2823.885,1334.004,2829.381,1327.225,2829.381z"/><path fill="#fff" d="M1235.798,1963.567c0,109.712-137.141,255.995-146.283,255.995
							c-9.143,0-146.283-146.283-146.283-255.995c0-80.79,65.493-146.283,146.283-146.283
							C1170.304,1817.284,1235.798,1882.777,1235.798,1963.567z"/><path fill="#217541" d="M1089.515,2231.838c-4.496,0-9.59,0-35.763-28.551c-9.84-10.735-29.531-33.26-50.843-63.51
							c-32.825-46.59-71.953-114.98-71.953-176.21c0-87.429,71.129-158.558,158.559-158.558
							c87.429,0,158.558,71.129,158.558,158.558c0,61.23-39.128,129.62-71.953,176.21c-21.312,30.25-41.002,52.775-50.842,63.509
							C1099.105,2231.838,1094.01,2231.838,1089.515,2231.838z M1089.515,1829.559c-73.892,0-134.008,60.116-134.008,134.007
							c0,52.884,34.455,114.11,63.359,156.159c29.58,43.033,58.844,74.172,70.649,84.86c11.805-10.688,41.069-41.828,70.648-84.86
							c28.904-42.049,63.359-103.275,63.359-156.159C1223.522,1889.675,1163.406,1829.559,1089.515,1829.559z"/><circle cx="1089.515" cy="1963.567" r="63.999" fill="#fff" transform="rotate(-76.714 1089.65 1963.679)"/><path fill="#217541" d="M1089.515 2039.841c-42.058 0-76.274-34.216-76.274-76.274s34.216-76.274 76.274-76.274c42.058 0 76.274 34.216 76.274 76.274S1131.572 2039.841 1089.515 2039.841zM1089.515 1911.843c-28.521 0-51.724 23.203-51.724 51.724s23.203 51.724 51.724 51.724c28.52 0 51.723-23.203 51.723-51.724S1118.035 1911.843 1089.515 1911.843zM1850.167 2436.245c-6.78 0-12.275-5.496-12.275-12.275v-137.14c0-43.645-35.507-79.152-79.152-79.152h-559.514c-6.78 0-12.275-5.496-12.275-12.275s5.496-12.275 12.275-12.275h559.514c57.182 0 103.703 46.521 103.703 103.703v137.14C1862.443 2430.749 1856.947 2436.245 1850.167 2436.245z"/><path fill="#fff" d="M1465.854,2572.585v-197.741h65.677h61.479h52.343c10.074,0,18.241,8.167,18.241,18.241
								v179.499H1465.854z"/><path fill="#217541" d="M1663.595,2584.861c-6.78,0-12.275-5.496-12.275-12.275v-179.499
								c0-3.29-2.677-5.966-5.966-5.966h-167.224v185.465c0,6.78-5.496,12.275-12.275,12.275s-12.275-5.496-12.275-12.275v-197.741
								c0-6.78,5.496-12.275,12.275-12.275h179.499c16.827,0,30.517,13.69,30.517,30.517v179.499
								C1675.87,2579.365,1670.375,2584.861,1663.595,2584.861z"/><path fill="#fff" d="M1268.113,2572.585v-179.499c0-10.074,8.167-18.241,18.241-18.241h179.499v197.741H1268.113z"/><path fill="#217541" d="M1465.854,2584.861c-6.78,0-12.275-5.496-12.275-12.275V2387.12h-167.224
								c-3.29,0-5.966,2.677-5.966,5.966v179.499c0,6.78-5.496,12.275-12.275,12.275s-12.275-5.496-12.275-12.275v-179.499
								c0-16.827,13.689-30.517,30.517-30.517h179.5c6.78,0,12.275,5.496,12.275,12.275v197.741
								C1478.129,2579.365,1472.634,2584.861,1465.854,2584.861z"/><polygon fill="#fff" points="1465.854 2770.326 1465.854 2572.585 1268.113 2572.585 1268.113 2770.326 1663.595 2770.326 1663.595 2572.585 1465.854 2572.585 1465.854 2770.326"/><path fill="#217541" d="M1663.595,2782.602h-395.481c-6.78,0-12.275-5.496-12.275-12.275v-197.741
								c0-6.78,5.496-12.275,12.275-12.275h395.481c6.78,0,12.275,5.496,12.275,12.275v197.741
								C1675.87,2777.106,1670.375,2782.602,1663.595,2782.602z M1478.129,2758.051h173.19v-173.19h-173.19V2758.051z
								 M1280.389,2758.051h173.19v-173.19h-173.19V2758.051z"/><g><path fill="#fff" d="M1927.431,2774.669v-86.386c0-15.226-3.082-30.295-9.06-44.298l-59.182-138.622
								c-3.996-9.361-13.193-15.435-23.371-15.435h-146.81c-14.035,0-25.412,11.378-25.412,25.413v259.328H1927.431z"/><path fill="#217541" d="M1927.431,2786.945c-6.78,0-12.275-5.496-12.275-12.275v-86.386
								c0-13.646-2.717-26.928-8.075-39.479l-59.181-138.622c-2.069-4.847-6.812-7.979-12.082-7.979h-146.811
								c-7.244,0-13.137,5.893-13.137,13.137v259.328c0,6.779-5.496,12.275-12.275,12.275s-12.275-5.496-12.275-12.275v-259.328
								c0-20.781,16.906-37.688,37.688-37.688h146.811c15.12,0,28.725,8.985,34.661,22.89l59.181,138.622
								c6.667,15.614,10.046,32.14,10.046,49.118v86.386C1939.706,2781.448,1934.21,2786.945,1927.431,2786.945z"/><path fill="#fff" d="M1765.258,2835.749h-278.486H1765.258z"/><path fill="#217541" d="M1765.258,2848.025h-278.486c-6.78,0-12.275-5.496-12.275-12.275s5.496-12.275,12.275-12.275
									h278.486c6.78,0,12.275,5.496,12.275,12.275S1772.038,2848.025,1765.258,2848.025z"/><path fill="#fff" d="M1932.492,2761.16h-671.837c-9.249,0-16.75,7.499-16.75,16.75v41.09
									c0,9.25,7.501,16.749,16.75,16.749h130.16h473.598h68.079c9.251,0,16.75-7.499,16.75-16.749v-41.09
									C1949.242,2768.659,1941.743,2761.16,1932.492,2761.16z"/><path fill="#217541" d="M1932.492,2848.024h-671.836c-16.005,0-29.026-13.021-29.026-29.024v-41.09
									c0-16.004,13.021-29.024,29.026-29.024h671.836c16.005,0,29.025,13.021,29.025,29.024v41.09
									C1961.517,2835.003,1948.497,2848.024,1932.492,2848.024z M1260.655,2773.436c-2.467,0-4.475,2.007-4.475,4.474v41.09
									c0,2.467,2.008,4.474,4.475,4.474h671.836c2.467,0,4.475-2.007,4.475-4.474v-41.09c0-2.467-2.007-4.474-4.475-4.474
									H1260.655z"/><circle cx="1816.436" cy="2853.429" r="51.179" fill="#d9ffd0"/><path fill="#217541" d="M1816.437,2916.883c-34.989,0-63.454-28.465-63.454-63.454s28.465-63.454,63.454-63.454
									s63.454,28.465,63.454,63.454S1851.425,2916.883,1816.437,2916.883z M1816.437,2814.526
									c-21.451,0-38.903,17.452-38.903,38.903s17.452,38.903,38.903,38.903s38.903-17.452,38.903-38.903
									S1837.888,2814.526,1816.437,2814.526z"/><circle cx="1438.795" cy="2853.429" r="51.179" fill="#d9ffd0"/><path fill="#217541" d="M1438.795,2916.883c-34.989,0-63.455-28.465-63.455-63.454s28.465-63.454,63.455-63.454
									c34.988,0,63.454,28.465,63.454,63.454S1473.783,2916.883,1438.795,2916.883z M1438.795,2814.526
									c-21.452,0-38.904,17.452-38.904,38.903s17.452,38.903,38.904,38.903c21.451,0,38.903-17.452,38.903-38.903
									S1460.246,2814.526,1438.795,2814.526z"/><g><path fill="#fff" d="M1870.526,2531.917h-104.673c-9.249,0-16.748,7.499-16.748,16.75v50.503
								c0,9.25,7.499,16.749,16.748,16.749h140.536L1870.526,2531.917z"/><path fill="#217541" d="M1906.389,2628.195h-140.536c-16.004,0-29.024-13.02-29.024-29.024v-50.504
								c0-16.004,13.02-29.025,29.024-29.025h104.673c4.917,0,9.359,2.934,11.29,7.456l35.863,84.002
								c1.619,3.792,1.226,8.144-1.046,11.584C1914.36,2626.125,1910.513,2628.195,1906.389,2628.195z M1765.854,2544.192
								c-2.466,0-4.473,2.007-4.473,4.474v50.504c0,2.467,2.007,4.474,4.473,4.474h121.947l-25.381-59.452H1765.854z"/></g></g></g><g><path fill="#fff" d="M2518.291,1966.907h37.684l423.83,111.747c4.094,1.072,6.904,4.5,6.904,8.395v67.965
				c0,4.835-4.273,8.738-9.538,8.738h-56.563v673.814l-766.95,0.002v-673.811v-0.005h-56.566c-5.273,0-9.535-3.903-9.535-8.738
				v-67.965c0-3.895,2.81-7.322,6.893-8.395L2518.291,1966.907z"/><path fill="#217541" d="M2153.658,2849.843c-3.256,0-6.378-1.293-8.68-3.596c-2.303-2.302-3.596-5.424-3.596-8.68
				v-661.541h-44.291c-12.026,0-21.811-9.426-21.811-21.013v-67.965c0-9.452,6.6-17.786,16.05-20.268l423.83-111.744
				c1.021-0.27,2.073-0.406,3.13-0.406h37.685c1.057,0,2.108,0.136,3.13,0.406l423.83,111.747
				c9.442,2.473,16.05,10.809,16.05,20.265v67.965c0,11.587-9.785,21.013-21.813,21.013h-44.288v661.538
				c0,6.779-5.496,12.275-12.275,12.275L2153.658,2849.843z M2099.832,2151.476h53.826c6.779,0,12.275,5.496,12.275,12.275v661.541
				l742.399-0.003v-661.538c0-6.779,5.496-12.275,12.275-12.275h53.826v-61.543l-420.05-110.751h-34.503l-420.05,110.748V2151.476z"/><rect width="196.842" height="234.698" x="2322.616" y="2367.978" fill="#d9ffd0"/><path fill="#217541" d="M2519.458 2614.951h-196.842c-6.779 0-12.275-5.496-12.275-12.275v-234.698c0-6.78 5.496-12.275 12.275-12.275h196.842c6.779 0 12.275 5.496 12.275 12.275v234.698C2531.734 2609.456 2526.238 2614.951 2519.458 2614.951zM2334.892 2590.401h172.291v-210.147h-172.291V2590.401zM2831.463 2223.521h-601.702c-6.779 0-12.275-5.496-12.275-12.275s5.496-12.275 12.275-12.275h601.702c6.779 0 12.275 5.496 12.275 12.275S2838.243 2223.521 2831.463 2223.521z"/><rect width="196.843" height="234.698" x="2255.062" y="2602.866" fill="#d9ffd0"/><path fill="#217541" d="M2451.904,2849.84h-196.843c-6.779,0-12.275-5.496-12.275-12.275v-234.698
				c0-6.78,5.496-12.275,12.275-12.275h196.843c6.779,0,12.275,5.496,12.275,12.275v234.698
				C2464.179,2844.344,2458.683,2849.84,2451.904,2849.84z M2267.336,2825.289h172.292v-210.147h-172.292V2825.289z"/><g><path fill="#217541" d="M2812.625,2501.673c-6.779,0-12.275-5.496-12.275-12.275v-104.88
				c0-6.78,5.496-12.275,12.275-12.275s12.275,5.496,12.275,12.275v104.88C2824.9,2496.177,2819.404,2501.673,2812.625,2501.673z"/><path fill="#d9ffd0" d="M2887.568,2814.562l-114.957,114.957v-117.65c0-25.251,10.031-49.468,27.886-67.323
					l69.012-69.012c6.664-6.664,18.059-1.944,18.059,7.48V2814.562z"/><path fill="#217541" d="M2772.608,2941.795c-1.581,0-3.176-0.306-4.694-0.936c-4.588-1.899-7.578-6.376-7.578-11.341
					v-117.649c0-28.71,11.18-55.701,31.48-76.003l69.014-69.012c6.559-6.56,16.336-8.504,24.905-4.955
					c8.57,3.55,14.108,11.838,14.108,21.114c0,6.779-5.496,12.275-12.275,12.275c-5.538,0-10.219-3.667-11.748-8.705l-66.644,66.643
					c-15.663,15.664-24.29,36.49-24.29,58.643v88.014l94.002-94.001c4.793-4.795,12.566-4.795,17.359,0
					c4.794,4.793,4.794,12.566,0,17.359l-114.957,114.957C2778.943,2940.547,2775.802,2941.795,2772.608,2941.795z"/><path fill="#d9ffd0" d="M2887.568,2814.562v-117.65c0-25.251,10.031-49.468,27.886-67.323l69.012-69.012
					c6.664-6.664,18.059-1.944,18.059,7.48v131.547L2887.568,2814.562z"/><path fill="#217541" d="M2887.568,2826.837c-6.779,0-12.275-5.496-12.275-12.275v-117.65
					c0-28.71,11.181-55.701,31.482-76.002l69.012-69.012c6.559-6.56,16.334-8.503,24.906-4.955
					c8.57,3.55,14.108,11.838,14.108,21.115v131.547c0,6.779-5.496,12.275-12.275,12.275s-12.275-5.496-12.275-12.275v-127.451
					l-66.116,66.116c-15.664,15.664-24.291,36.49-24.291,58.642v117.65C2899.843,2821.341,2894.347,2826.837,2887.568,2826.837z"/><path fill="#d9ffd0" d="M2887.568,2814.562l-114.957,114.957h117.65c25.251,0,49.468-10.031,67.323-27.886l69.012-69.012
					c6.664-6.664,1.944-18.059-7.48-18.059H2887.568z"/><path fill="#217541" d="M2890.26,2941.794h-117.649c-4.965,0-9.441-2.99-11.341-7.578
					c-1.9-4.587-0.85-9.866,2.661-13.377l114.957-114.957c4.793-4.795,12.566-4.795,17.359,0c4.794,4.793,4.794,12.565,0,17.359
					l-94.001,94.002h88.014c22.152,0,42.979-8.627,58.644-24.291l66.642-66.643c-5.038-1.529-8.705-6.21-8.705-11.748
					c0-6.779,5.496-12.275,12.275-12.275c9.276,0,17.564,5.538,21.114,14.109c3.55,8.57,1.604,18.347-4.955,24.905l-69.012,69.012
					C2945.961,2930.615,2918.969,2941.794,2890.26,2941.794z"/><path fill="#217541" d="M2701.547,3012.857c-3.142,0-6.283-1.198-8.68-3.596c-4.794-4.794-4.794-12.566,0-17.359
				l108.465-108.464c4.793-4.795,12.566-4.795,17.359,0c4.794,4.794,4.794,12.566,0,17.359l-108.465,108.464
				C2707.831,3011.658,2704.689,3012.857,2701.547,3012.857z"/><path fill="#d9ffd0" d="M2887.568,2814.562h117.65c25.251,0,49.468-10.031,67.323-27.886l69.012-69.012
					c6.664-6.664,1.944-18.059-7.48-18.059h-131.547L2887.568,2814.562z"/><path fill="#217541" d="M3005.218,2826.837h-117.65c-4.965,0-9.441-2.99-11.341-7.578
					c-1.9-4.587-0.85-9.866,2.661-13.377l114.958-114.958c2.302-2.303,5.424-3.596,8.68-3.596h131.547
					c9.276,0,17.564,5.538,21.114,14.108c3.551,8.57,1.605,18.347-4.954,24.906l-69.013,69.013
					C3060.92,2815.656,3033.928,2826.837,3005.218,2826.837z M2917.204,2802.286h88.015c22.152,0,42.979-8.627,58.642-24.291
					l66.117-66.116h-122.366L2917.204,2802.286z"/><polygon fill="#d9ffd0" points="3110.99 2591.14 3084.809 2699.604 3002.197 2699.932 3002.525 2617.321"/><path fill="#217541" d="M3002.197,2712.208c-3.255,0-6.378-1.293-8.68-3.596c-2.314-2.313-3.608-5.456-3.596-8.729
					l0.329-82.612c0.022-5.652,3.901-10.558,9.396-11.884l108.464-26.181c4.155-1.002,8.536,0.229,11.56,3.252
					c3.024,3.024,4.257,7.403,3.253,11.561l-26.181,108.463c-1.326,5.494-6.232,9.373-11.884,9.396l-82.612,0.329
					C3002.229,2712.208,3002.212,2712.208,3002.197,2712.208z M3014.763,2626.995l-0.241,60.613l60.613-0.241l19.208-79.581
					L3014.763,2626.995z"/><path fill="#217541" d="M3110.99 2603.415c-3.142 0-6.283-1.198-8.681-3.595-4.793-4.794-4.793-12.566.001-17.36l26.182-26.181c4.793-4.793 12.565-4.794 17.36 0 4.793 4.794 4.793 12.566-.001 17.36l-26.182 26.181C3117.273 2602.217 3114.131 2603.415 3110.99 2603.415zM2984.466 2572.852c-3.142 0-6.283-1.198-8.68-3.595-4.794-4.794-4.794-12.566 0-17.36l74.161-74.162c4.793-4.794 12.566-4.794 17.359 0 4.794 4.794 4.794 12.566 0 17.36l-74.161 74.162C2990.75 2571.654 2987.608 2572.852 2984.466 2572.852zM3141.553 2729.939c-3.142 0-6.283-1.198-8.68-3.596-4.794-4.793-4.794-12.565 0-17.359l74.161-74.162c4.793-4.794 12.566-4.794 17.359 0 4.794 4.794 4.794 12.566 0 17.36l-74.161 74.161C3147.836 2728.74 3144.695 2729.939 3141.553 2729.939z"/><path fill="#d9ffd0" d="M2701.548,2737.509v162.574l-83.191-83.191c-17.855-17.855-27.886-42.072-27.886-67.323v-97.598
						c0-9.425,11.395-14.145,18.059-7.48L2701.548,2737.509z"/><path fill="#217541" d="M2701.55,2912.36c-3.195,0-6.335-1.248-8.683-3.597l-83.19-83.19
						c-20.302-20.301-31.481-47.292-31.481-76.003v-97.598c0-9.277,5.538-17.565,14.108-21.115
						c8.571-3.551,18.348-1.605,24.905,4.954c4.794,4.794,4.794,12.566,0,17.36c-3.914,3.916-9.817,4.634-14.463,2.151v94.247
						c0,22.152,8.627,42.979,24.29,58.644l62.235,62.234v-132.938c0-6.779,5.496-12.275,12.275-12.275s12.275,5.496,12.275,12.275
						v162.574c0,4.965-2.99,9.441-7.578,11.341C2704.726,2912.053,2703.131,2912.36,2701.55,2912.36z"/><path fill="#d9ffd0" d="M2701.548,2737.509l-83.191-83.191c-17.855-17.855-27.886-42.072-27.886-67.323v-97.598
						c0-9.425,11.395-14.145,18.059-7.48l93.018,93.018V2737.509z"/><path fill="#217541" d="M2701.547,2749.784c-3.142,0-6.283-1.198-8.68-3.596l-83.19-83.19
						c-20.302-20.301-31.481-47.293-31.481-76.003v-97.598c0-9.277,5.538-17.565,14.108-21.115
						c8.571-3.55,18.348-1.605,24.905,4.954l93.018,93.018c4.794,4.794,4.794,12.566,0,17.36c-4.793,4.793-12.566,4.794-17.359,0
						l-90.121-90.121v93.501c0,22.153,8.627,42.979,24.29,58.643l83.19,83.191c4.794,4.793,4.794,12.565,0,17.359
						C2707.831,2748.586,2704.689,2749.784,2701.547,2749.784z"/><path fill="#d9ffd0" d="M2701.548,2737.509v162.574l83.191-83.191c17.855-17.855,27.886-42.072,27.886-67.323v-97.598
						c0-9.425-11.395-14.145-18.059-7.48L2701.548,2737.509z"/><path fill="#217541" d="M2701.544,2912.36c-1.581,0-3.176-0.306-4.694-0.936c-4.588-1.899-7.578-6.376-7.578-11.341
						v-162.574c0-6.779,5.496-12.275,12.275-12.275s12.275,5.496,12.275,12.275v132.938l62.236-62.235
						c15.663-15.663,24.29-36.49,24.29-58.643v-94.247c-4.646,2.481-10.549,1.764-14.463-2.151c-4.794-4.794-4.794-12.566,0-17.36
						c6.559-6.559,16.333-8.504,24.905-4.954c8.57,3.55,14.108,11.838,14.108,21.115v97.598c0,28.711-11.18,55.702-31.481,76.003
						l-83.191,83.191C2707.879,2911.112,2704.739,2912.36,2701.544,2912.36z"/><path fill="#217541" d="M2701.547,3012.857c-6.779,0-12.275-5.496-12.275-12.275V2847.19
					c0-6.779,5.496-12.275,12.275-12.275s12.275,5.496,12.275,12.275v153.392
					C2713.823,3007.361,2708.327,3012.857,2701.547,3012.857z"/><path fill="#d9ffd0" d="M2701.548,2737.509l83.191-83.191c17.855-17.855,27.886-42.072,27.886-67.323v-97.598
						c0-9.425-11.395-14.145-18.059-7.48l-93.018,93.018V2737.509z"/><path fill="#217541" d="M2701.544,2749.785c-1.581,0-3.176-0.306-4.694-0.936c-4.588-1.899-7.578-6.376-7.578-11.341
						v-162.574c0-3.256,1.293-6.378,3.596-8.68l93.019-93.018c6.559-6.559,16.333-8.504,24.905-4.954
						c8.57,3.55,14.108,11.838,14.108,21.115v97.598c0,28.71-11.18,55.703-31.481,76.003l-83.191,83.191
						C2707.879,2748.537,2704.739,2749.785,2701.544,2749.785z M2713.823,2580.02v127.854l62.236-62.235
						c15.663-15.664,24.29-36.49,24.29-58.643v-93.501L2713.823,2580.02z"/><polygon fill="#d9ffd0" points="2701.548 2421.543 2759.731 2516.752 2701.548 2575.399 2643.365 2516.752"/><path fill="#217541" d="M2701.547,2587.675c-3.272,0-6.41-1.307-8.715-3.63l-58.183-58.647
						c-3.98-4.012-4.707-10.224-1.76-15.046l58.183-95.209c2.23-3.649,6.198-5.875,10.475-5.875s8.244,2.225,10.475,5.874
						l58.184,95.209c2.947,4.822,2.221,11.034-1.76,15.046l-58.184,58.647C2707.957,2586.368,2704.82,2587.675,2701.547,2587.675z
						 M2658.859,2514.94l42.688,43.03l42.689-43.03l-42.689-69.856L2658.859,2514.94z"/><path fill="#217541" d="M2701.547 2433.819c-6.779 0-12.275-5.496-12.275-12.275v-37.026c0-6.78 5.496-12.275 12.275-12.275s12.275 5.496 12.275 12.275v37.026C2713.823 2428.323 2708.327 2433.819 2701.547 2433.819zM2590.471 2501.673c-6.779 0-12.275-5.496-12.275-12.275v-104.88c0-6.78 5.496-12.275 12.275-12.275s12.275 5.496 12.275 12.275v104.88C2602.747 2496.177 2597.25 2501.673 2590.471 2501.673z"/></g></g></svg>